<svg width="94" height="37" viewBox="0 0 94 37" fill="none" xmlns="http://www.w3.org/2000/svg">
<g clip-path="url(#clip0_1_757)" filter="url(#filter0_d_1_757)">
<path d="M40.5974 14.8719C40.5974 18.8972 37.4388 21.8634 33.5625 21.8634C29.6862 21.8634 26.5276 18.8972 26.5276 14.8719C26.5276 10.8182 29.6862 7.88037 33.5625 7.88037C37.4388 7.88037 40.5974 10.8182 40.5974 14.8719ZM37.5179 14.8719C37.5179 12.3565 35.6872 10.6354 33.5625 10.6354C31.4378 10.6354 29.6071 12.3565 29.6071 14.8719C29.6071 17.3621 31.4378 19.1084 33.5625 19.1084C35.6872 19.1084 37.5179 17.359 37.5179 14.8719Z" fill="#EA4335"/>
<path d="M55.7739 14.8719C55.7739 18.8972 52.6153 21.8634 48.739 21.8634C44.8626 21.8634 41.704 18.8972 41.704 14.8719C41.704 10.8213 44.8626 7.88037 48.739 7.88037C52.6153 7.88037 55.7739 10.8182 55.7739 14.8719ZM52.6943 14.8719C52.6943 12.3565 50.8637 10.6354 48.739 10.6354C46.6143 10.6354 44.7836 12.3565 44.7836 14.8719C44.7836 17.3621 46.6143 19.1084 48.739 19.1084C50.8637 19.1084 52.6943 17.359 52.6943 14.8719Z" fill="#FBBC05"/>
<path d="M70.318 8.30276V20.8547C70.318 26.018 67.2637 28.1268 63.653 28.1268C60.2541 28.1268 58.2084 25.8604 57.4369 24.0069L60.1181 22.8942C60.5955 24.0321 61.7654 25.3749 63.6498 25.3749C65.9611 25.3749 67.3933 23.9533 67.3933 21.2771V20.2716H67.2859C66.5966 21.1195 65.2686 21.8603 63.5929 21.8603C60.0865 21.8603 56.8741 18.8153 56.8741 14.8971C56.8741 10.9506 60.0865 7.88037 63.5929 7.88037C65.2655 7.88037 66.5934 8.62113 67.2859 9.44385H67.3933V8.30591H70.318V8.30276ZM67.6115 14.8971C67.6115 12.4353 65.9642 10.6354 63.868 10.6354C61.7433 10.6354 59.9632 12.4353 59.9632 14.8971C59.9632 17.3337 61.7433 19.1084 63.868 19.1084C65.9642 19.1084 67.6115 17.3337 67.6115 14.8971Z" fill="#4285F4"/>
<path d="M75.1397 0.945801V21.4349H72.136V0.945801H75.1397Z" fill="#34A853"/>
<path d="M86.8445 17.1732L89.2348 18.7619C88.4634 19.8998 86.6043 21.8605 83.3919 21.8605C79.4081 21.8605 76.4329 18.7903 76.4329 14.869C76.4329 10.7112 79.4334 7.87744 83.0473 7.87744C86.6865 7.87744 88.4665 10.7648 89.0483 12.3252L89.3676 13.1195L79.993 16.9904C80.7107 18.3931 81.8268 19.1086 83.3919 19.1086C84.9601 19.1086 86.0478 18.3395 86.8445 17.1732ZM79.4871 14.6578L85.7537 12.0635C85.4091 11.1904 84.372 10.582 83.1516 10.582C81.5865 10.582 79.4081 11.9595 79.4871 14.6578Z" fill="#EA4335"/>
<path d="M15.1579 13.0529V10.0868H25.1838C25.2818 10.6037 25.3324 11.2152 25.3324 11.8772C25.3324 14.1026 24.7222 16.8545 22.7556 18.8151C20.8427 20.801 18.3987 21.8601 15.161 21.8601C9.16001 21.8601 4.11383 16.9869 4.11383 11.004C4.11383 5.02121 9.16001 0.147949 15.161 0.147949C18.4809 0.147949 20.8459 1.44664 22.6228 3.13936L20.5234 5.23241C19.2492 4.04088 17.5229 3.11414 15.1579 3.11414C10.7757 3.11414 7.34832 6.63512 7.34832 11.004C7.34832 15.3729 10.7757 18.8939 15.1579 18.8939C18.0003 18.8939 19.6191 17.756 20.6562 16.7221C21.4972 15.8836 22.0505 14.6858 22.2687 13.0498L15.1579 13.0529Z" fill="#4285F4"/>
</g>
<defs>
<filter id="filter0_d_1_757" x="0" y="0" width="94" height="37" filterUnits="userSpaceOnUse" color-interpolation-filters="sRGB">
<feFlood flood-opacity="0" result="BackgroundImageFix"/>
<feColorMatrix in="SourceAlpha" type="matrix" values="0 0 0 0 0 0 0 0 0 0 0 0 0 0 0 0 0 0 127 0" result="hardAlpha"/>
<feOffset dy="4"/>
<feGaussianBlur stdDeviation="2"/>
<feComposite in2="hardAlpha" operator="out"/>
<feColorMatrix type="matrix" values="0 0 0 0 0 0 0 0 0 0 0 0 0 0 0 0 0 0 0.25 0"/>
<feBlend mode="normal" in2="BackgroundImageFix" result="effect1_dropShadow_1_757"/>
<feBlend mode="normal" in="SourceGraphic" in2="effect1_dropShadow_1_757" result="shape"/>
</filter>
<clipPath id="clip0_1_757">
<rect width="86" height="29" fill="white" transform="translate(4)"/>
</clipPath>
</defs>
</svg>
